HIERARCHY
ROOT Hips
{
	OFFSET 0.000000 0.000000 0.000000
	CHANNELS 6 Xposition Yposition Zposition Xrotation Yrotation Zrotation
	JOINT LeftUpLeg_virtual
	{
		OFFSET 0.000000 0.000000 0.000000
		CHANNELS 3 Xrotation Yrotation Zrotation
		JOINT LeftUpLeg
		{
			OFFSET 10.205400 -3.823500 0.155100
			CHANNELS 3 Xrotation Yrotation Zrotation
			JOINT LeftLeg
			{
				OFFSET 0.708757 -12.982077 0.567790
				CHANNELS 3 Xrotation Yrotation Zrotation
				JOINT LeftFoot
				{
					OFFSET -0.708756 -10.717838 -2.184338
					CHANNELS 3 Xrotation Yrotation Zrotation
					JOINT LeftToeBase
					{
						OFFSET 0.108149 -7.191104 7.560241
						CHANNELS 3 Xrotation Yrotation Zrotation
						JOINT LeftToe_End
						{
							OFFSET 0.070230 0.081724 4.490308
							CHANNELS 3 Xrotation Yrotation Zrotation
							End Site
							{
								OFFSET 0 0 0
							}
						}
					}
				}
			}
		}
	}
	JOINT RightUpLeg_virtual
	{
		OFFSET 0.000000 0.000000 0.000000
		CHANNELS 3 Xrotation Yrotation Zrotation
		JOINT RightUpLeg
		{
			OFFSET -10.205400 -3.823500 0.005500
			CHANNELS 3 Xrotation Yrotation Zrotation
			JOINT RightLeg
			{
				OFFSET -0.708756 -12.982134 0.610632
				CHANNELS 3 Xrotation Yrotation Zrotation
				JOINT RightFoot
				{
					OFFSET 0.708754 -10.717769 -1.945823
					CHANNELS 3 Xrotation Yrotation Zrotation
					JOINT RightToeBase
					{
						OFFSET -0.108140 -7.191069 7.372968
						CHANNELS 3 Xrotation Yrotation Zrotation
						JOINT RightToe_End
						{
							OFFSET -0.070227 0.081735 4.479403
							CHANNELS 3 Xrotation Yrotation Zrotation
							End Site
							{
								OFFSET 0 0 0
							}
						}
					}
				}
			}
		}
	}
	JOINT Spine_virtual
	{
		OFFSET 0.000000 0.000000 0.000000
		CHANNELS 3 Xrotation Yrotation Zrotation
		JOINT Spine
		{
			OFFSET 0.000000 6.876099 0.125700
			CHANNELS 3 Xrotation Yrotation Zrotation
			JOINT Spine1
			{
				OFFSET 0.000000 5.730043 0.104720
				CHANNELS 3 Xrotation Yrotation Zrotation
				JOINT Spine1_split
				{
					OFFSET 0.000000 5.730043 0.104720
					CHANNELS 3 Xrotation Yrotation Zrotation
					JOINT Spine2
					{
						OFFSET 0.000000 5.730043 0.104720
						CHANNELS 3 Xrotation Yrotation Zrotation
						JOINT Neck_virtual
						{
							OFFSET 0.000000 0.000000 0.000000
							CHANNELS 3 Xrotation Yrotation Zrotation
							JOINT Neck
							{
								OFFSET 0.000000 10.314075 0.188496
								CHANNELS 3 Xrotation Yrotation Zrotation
								JOINT Head
								{
									OFFSET 0.000000 7.643700 -2.377400
									CHANNELS 3 Xrotation Yrotation Zrotation
									JOINT HeadTop_End
									{
										OFFSET 0.000000 43.788605 -13.619600
										CHANNELS 3 Xrotation Yrotation Zrotation
										End Site
										{
											OFFSET 0 0 0
										}
									}
								}
							}
						}
						JOINT LeftShoulder_virtual
						{
							OFFSET 0.000000 0.000000 0.000000
							CHANNELS 3 Xrotation Yrotation Zrotation
							JOINT LeftShoulder
							{
								OFFSET 2.196100 4.412489 0.087492
								CHANNELS 3 Xrotation Yrotation Zrotation
								JOINT LeftShoulder_split
								{
									OFFSET 2.196100 4.412489 0.087492
									CHANNELS 3 Xrotation Yrotation Zrotation
									JOINT LeftArm
									{
										OFFSET 8.771219 -2.981674 -0.026999
										CHANNELS 3 Xrotation Yrotation Zrotation
										JOINT LeftForeArm
										{
											OFFSET 8.512804 0.000000 -0.000000
											CHANNELS 3 Xrotation Yrotation Zrotation
											JOINT LeftHand
											{
												OFFSET 18.484802 0.000000 -0.000000
												CHANNELS 3 Xrotation Yrotation Zrotation
												End Site
												{
													OFFSET 0 0 0
												}
											}
										}
									}
								}
							}
						}
						JOINT RightShoulder_virtual
						{
							OFFSET 0.000000 0.000000 0.000000
							CHANNELS 3 Xrotation Yrotation Zrotation
							JOINT RightShoulder
							{
								OFFSET -2.196100 4.412496 0.070690
								CHANNELS 3 Xrotation Yrotation Zrotation
								JOINT RightShoulder_split
								{
									OFFSET -2.196100 4.412496 0.070690
									CHANNELS 3 Xrotation Yrotation Zrotation
									JOINT RightArm
									{
										OFFSET -8.771282 -2.981682 -0.094208
										CHANNELS 3 Xrotation Yrotation Zrotation
										JOINT RightForeArm
										{
											OFFSET -8.494598 0.000000 0.000000
											CHANNELS 3 Xrotation Yrotation Zrotation
											JOINT RightHand
											{
												OFFSET -18.483803 0.000000 0.000001
												CHANNELS 3 Xrotation Yrotation Zrotation
												End Site
												{
													OFFSET 0 0 0
												}
											}
										}
									}
								}
							}
						}
					}
				}
			}
		}
	}
}
MOTION
Frames: 7
Frame Time: 0.03333333
-0.301770 26.564655 0.292917 0.000000 0.000000 0.000000 11.655837 -49.360722 11.305343 -69.352723 16.208357 51.972207 53.929572 -25.144858 2.808955 2.213488 2.700430 -19.144238 -0.941409 -6.111089 0.982430 0.000000 0.000000 0.000000 11.655837 -49.360722 11.305343 -27.355060 4.523093 -38.849085 61.088058 11.597468 -5.601611 -37.637317 -11.607274 32.641884 0.528340 2.970041 1.471439 0.000000 0.000000 0.000000 11.655837 -49.360722 11.305343 10.974599 2.699128 -2.070010 6.100719 5.566529 -4.284685 0.000000 0.000000 0.000000 0.000000 0.000000 0.000000 -5.786914 6.328155 -3.046188 2.318650 9.363419 -0.265731 -4.146880 23.161858 -3.522968 0.000000 0.000000 0.000000 -5.786914 6.328155 -3.046188 -1.882861 -16.244778 -2.883327 0.000000 0.000000 0.000000 -10.641506 2.224961 -45.488363 -22.862395 -25.786257 -15.871707 0.000000 0.000000 0.000000 -5.786914 6.328155 -3.046188 -5.080950 24.428090 1.493081 0.000000 0.000000 0.000000 6.647383 -34.818556 57.612919 -21.031976 44.833823 19.961682 0.000000 0.000000 0.000000 
-0.316861 26.559013 0.287680 0.000000 0.000000 0.000000 11.495013 -49.645428 11.234729 -68.976407 16.258353 52.115713 54.005831 -25.046896 2.929659 1.983009 2.773810 -19.387366 -1.020469 -6.221607 1.062959 0.000000 0.000000 0.000000 11.495013 -49.645428 11.234729 -27.398732 4.790592 -38.786366 61.243752 11.640217 -5.599154 -37.567133 -11.521107 32.607955 0.552211 2.999116 1.361445 0.000000 0.000000 0.000000 11.495013 -49.645428 11.234729 10.992298 2.797317 -2.107250 6.210110 5.609805 -4.231204 0.000000 0.000000 0.000000 0.000000 0.000000 0.000000 -5.697419 6.318251 -3.012863 2.193452 9.464201 -0.640307 -4.095889 23.049771 -3.380867 0.000000 0.000000 0.000000 -5.697419 6.318251 -3.012863 -1.908079 -16.258765 -3.020654 0.000000 0.000000 0.000000 -10.687451 2.247382 -45.360041 -22.769665 -25.731457 -15.803237 0.000000 0.000000 0.000000 -5.697419 6.318251 -3.012863 -5.072069 24.344584 1.612709 0.000000 0.000000 0.000000 6.672752 -34.749626 56.881716 -18.584991 45.084016 18.881611 0.000000 0.000000 0.000000 
-0.329437 26.553974 0.265337 0.000000 0.000000 0.000000 11.175351 -49.934301 11.167010 -68.387795 16.482749 52.063824 53.905632 -24.868382 3.168060 1.813299 2.788712 -19.747019 -1.088682 -6.280695 1.133039 0.000000 0.000000 0.000000 11.175351 -49.934301 11.167010 -27.450508 5.134203 -38.883768 61.553549 11.826528 -5.576298 -37.517423 -11.414967 32.494307 0.625060 2.940862 1.337011 0.000000 0.000000 0.000000 11.175351 -49.934301 11.167010 11.018523 2.861957 -2.157741 6.331284 5.599950 -4.228954 0.000000 0.000000 0.000000 0.000000 0.000000 0.000000 -5.592462 6.271875 -3.037230 2.123661 9.689422 -1.179597 -4.049716 22.935632 -3.100422 0.000000 0.000000 0.000000 -5.592462 6.271875 -3.037230 -1.896899 -15.889952 -3.087193 0.000000 0.000000 0.000000 -10.739188 2.060728 -45.364255 -22.581801 -25.698817 -15.654596 0.000000 0.000000 0.000000 -5.592462 6.271875 -3.037230 -5.134564 24.848314 2.120654 0.000000 0.000000 0.000000 6.274992 -34.716161 53.957668 -9.547855 44.108429 14.324998 0.000000 0.000000 0.000000 
-0.341341 26.557827 0.217842 0.000000 0.000000 0.000000 10.838759 -50.632319 10.968935 -67.625833 16.615957 52.416709 53.861280 -24.663362 3.476218 1.489941 2.850376 -20.345989 -1.166634 -6.283316 1.214260 0.000000 0.000000 0.000000 10.838759 -50.632319 10.968935 -27.518813 6.043417 -38.366033 61.895051 11.640416 -5.650575 -37.246336 -11.331939 32.508210 0.457960 2.755706 1.134685 0.000000 0.000000 0.000000 10.838759 -50.632319 10.968935 11.041842 2.956127 -2.282387 6.447410 5.652629 -4.384802 0.000000 0.000000 0.000000 0.000000 0.000000 0.000000 -5.490714 6.324078 -3.199993 2.057284 9.915258 -1.370663 -3.785028 22.911683 -2.839733 0.000000 0.000000 0.000000 -5.490714 6.324078 -3.199993 -1.892142 -15.676850 -3.056759 0.000000 0.000000 0.000000 -10.684164 2.325824 -45.125004 -22.465267 -25.817526 -15.514928 0.000000 0.000000 0.000000 -5.490714 6.324078 -3.199993 -4.992318 24.477615 2.436405 0.000000 0.000000 0.000000 5.492923 -32.730267 49.929909 3.493395 38.566301 8.525781 0.000000 0.000000 0.000000 
-0.352891 26.581100 0.154259 0.000000 0.000000 0.000000 10.435599 -51.328831 10.697744 -66.699488 16.757125 52.566973 53.716494 -24.264011 4.007488 1.180558 2.919748 -21.149689 -1.134165 -6.268025 1.280172 0.000000 0.000000 0.000000 10.435599 -51.328831 10.697744 -27.324638 7.083454 -37.617298 62.178094 11.064283 -5.823436 -37.075971 -11.421049 32.708587 0.412306 2.610099 1.139704 0.000000 0.000000 0.000000 10.435599 -51.328831 10.697744 11.113982 3.022376 -2.537831 6.667153 5.659040 -4.816348 0.000000 0.000000 0.000000 0.000000 0.000000 0.000000 -5.279800 6.392596 -3.639196 1.352313 9.878826 -0.630881 -3.073675 22.961117 -2.981167 0.000000 0.000000 0.000000 -5.279800 6.392596 -3.639196 -1.815702 -15.200632 -2.652845 0.000000 0.000000 0.000000 -10.878624 2.223969 -44.702526 -22.305309 -25.873462 -15.300192 0.000000 0.000000 0.000000 -5.279800 6.392596 -3.639196 -4.959364 25.346144 3.115261 0.000000 0.000000 0.000000 4.203188 -31.045713 46.983587 14.417346 29.637714 6.464253 0.000000 0.000000 0.000000 
-0.395144 26.641617 0.050926 0.000000 0.000000 0.000000 10.027287 -51.396842 10.548947 -65.888267 17.144690 51.867634 53.025190 -23.193352 4.885646 1.566073 2.810204 -22.032017 -1.246314 -7.561338 1.404295 0.000000 0.000000 0.000000 10.027287 -51.396842 10.548947 -26.727758 7.722664 -37.050511 62.451944 10.217075 -6.039127 -37.244666 -11.704691 32.936784 0.247305 2.442011 1.250441 0.000000 0.000000 0.000000 10.027287 -51.396842 10.548947 11.250394 3.106795 -2.809426 7.011809 5.730181 -5.302697 0.000000 0.000000 0.000000 0.000000 0.000000 0.000000 -4.942861 6.540210 -4.115482 0.060298 9.502327 0.223876 -2.439614 22.726423 -3.346741 0.000000 0.000000 0.000000 -4.942861 6.540210 -4.115482 -1.725490 -14.789219 -2.070552 0.000000 0.000000 0.000000 -11.687835 1.123602 -44.574180 -21.831667 -25.555245 -14.862510 0.000000 0.000000 0.000000 -4.942861 6.540210 -4.115482 -4.924318 26.129169 3.885929 0.000000 0.000000 0.000000 3.544198 -28.981859 44.863128 24.709073 21.116566 6.499703 0.000000 0.000000 0.000000 
-0.442065 26.685375 -0.081747 0.000000 0.000000 0.000000 9.341826 -50.005413 10.077708 -66.123546 17.210905 50.546118 51.708186 -24.048188 5.154205 2.668281 2.634782 -22.016637 -1.291036 -5.978272 1.354448 0.000000 0.000000 0.000000 9.341826 -50.005413 10.077708 -25.031755 7.137843 -36.889507 62.592994 8.954148 -6.120468 -38.154072 -12.336824 33.238381 0.077987 2.227714 1.337886 0.000000 0.000000 0.000000 9.341826 -50.005413 10.077708 11.441620 3.126543 -2.903144 7.443103 5.725125 -5.468207 0.000000 0.000000 0.000000 0.000000 0.000000 0.000000 -4.519283 6.551284 -4.290408 -1.073119 9.034037 0.087345 -2.667249 22.010170 -3.307464 0.000000 0.000000 0.000000 -4.519283 6.551284 -4.290408 -1.680284 -14.545533 -1.680208 0.000000 0.000000 0.000000 -12.967768 -0.805167 -45.079279 -21.252117 -25.339788 -14.438282 0.000000 0.000000 0.000000 -4.519283 6.551284 -4.290408 -4.600713 26.487994 4.252975 0.000000 0.000000 0.000000 5.638127 -26.646470 42.538442 36.904615 19.526017 4.800584 0.000000 0.000000 0.000000 
